 <svg version="1.0" xmlns="http://www.w3.org/2000/svg" width="700.000000pt" height="583.000000pt" viewBox="0 0 700.000000 583.000000" preserveAspectRatio="xMidYMid meet">
<metadata>
Created by potrace 1.12, written by Peter Selinger 2001-2015
</metadata>
<g transform="translate(0.000000,583.000000) scale(0.100000,-0.100000)" fill="#000000" stroke="none">
<path d="M3719 3436 c30 -31 33 -39 29 -78 -3 -24 -17 -69 -32 -102 -16 -35
-30 -86 -34 -130 l-7 -71 -72 -3 c-69 -3 -73 -2 -89 25 -9 15 -39 62 -65 103
-75 120 -75 131 11 196 28 21 46 40 41 42 -21 7 -133 -62 -143 -87 -14 -38 0
-93 39 -158 20 -32 47 -77 60 -100 27 -47 27 -47 -36 -138 -21 -30 -44 -75
-51 -100 -11 -40 -11 -50 5 -85 10 -21 24 -41 31 -44 12 -4 11 0 -1 24 -30 58
-18 95 69 210 22 30 45 58 51 62 5 4 47 8 92 8 l82 0 53 -77 c29 -43 56 -87
60 -98 6 -19 6 -19 7 2 1 12 -3 25 -9 28 -5 3 -10 15 -10 25 0 10 -17 49 -37
86 -47 88 -50 156 -9 254 38 91 44 157 17 192 -11 14 -35 31 -53 37 l-32 11
33 -34z"></path>
<path d="M3539 2365 c-39 -21 -59 -59 -59 -109 0 -60 35 -100 140 -160 43 -25
88 -57 99 -72 50 -63 7 -134 -81 -134 -68 0 -112 30 -145 100 -11 23 -12 21
-10 -25 2 -46 4 -51 41 -71 124 -70 276 -14 276 101 0 59 -25 86 -148 163
-109 68 -135 101 -114 147 37 81 169 67 212 -23 19 -41 30 -40 30 1 0 34 -22
63 -67 86 -30 15 -143 13 -174 -4z"></path>
<path d="M1851 2353 c11 -12 15 -71 19 -241 4 -199 7 -226 22 -236 32 -20 43
8 48 127 l5 112 110 0 110 0 5 -105 c3 -58 8 -110 13 -117 8 -12 65 -28 74
-20 2 3 -1 16 -9 29 -9 16 -14 86 -18 243 l-5 220 -25 0 c-25 0 -25 0 -28
-105 -2 -68 -7 -107 -15 -112 -15 -10 -188 -10 -203 0 -6 4 -14 49 -16 99 -3
52 -11 100 -18 108 -7 8 -28 15 -47 15 -32 0 -34 -2 -22 -17z"></path>
<path d="M2385 2340 c12 -23 15 -70 15 -237 0 -114 4 -214 9 -221 6 -11 38
-13 141 -10 125 3 133 4 151 27 31 38 24 56 -11 30 -24 -18 -47 -23 -115 -27
-59 -3 -90 -1 -100 8 -19 16 -22 179 -3 198 8 8 45 12 100 12 52 0 88 4 88 10
0 6 -36 10 -88 10 -55 0 -92 4 -100 12 -15 15 -16 152 -2 179 20 35 199 22
214 -17 9 -23 26 -16 26 11 0 14 -8 29 -19 35 -11 5 -86 10 -171 10 l-151 0
16 -30z"></path>
<path d="M2801 2343 c18 -15 67 -81 111 -147 l78 -120 0 -97 c0 -101 5 -115
40 -104 18 6 20 15 20 107 l0 101 80 131 c44 73 80 139 80 146 0 22 -18 -2
-95 -122 -37 -60 -71 -108 -76 -108 -5 0 -38 44 -73 98 -75 116 -104 142 -158
142 l-40 0 33 -27z"></path>
<path d="M4063 2354 c-6 -10 -39 -86 -73 -169 -34 -82 -73 -174 -86 -202 -29
-65 -39 -103 -26 -103 5 0 22 28 36 62 15 35 33 66 39 70 7 4 53 8 104 8 94 0
123 -11 123 -45 0 -22 73 -93 103 -100 38 -10 43 -2 15 27 -13 13 -39 59 -57
103 -18 44 -41 98 -51 120 -9 22 -32 77 -50 123 -18 46 -40 93 -50 104 -17 21
-17 21 -27 2z m5 -116 c12 -15 72 -163 72 -178 0 -6 -37 -10 -85 -10 -69 0
-85 3 -85 15 0 8 16 49 35 91 19 41 35 80 35 85 0 13 16 11 28 -3z"></path>
<path d="M4385 2346 c13 -20 16 -59 16 -231 -1 -206 5 -245 34 -245 25 0 35
37 35 134 l0 96 29 0 c25 0 35 -10 85 -94 61 -102 97 -136 145 -136 39 0 39 5
0 37 -30 26 -119 167 -119 190 0 6 18 22 39 34 48 27 66 59 65 116 -1 33 -7
51 -28 72 -38 39 -86 51 -210 51 l-106 0 15 -24z m206 -19 c67 -45 74 -109 18
-163 -24 -23 -38 -28 -82 -29 l-52 0 -3 85 c-4 119 0 130 47 130 23 0 51 -9
72 -23z"></path>
<path d="M4984 2323 c-9 -21 -40 -95 -69 -165 -53 -127 -78 -185 -97 -224 -5
-12 -8 -30 -6 -40 3 -13 15 2 39 51 l34 70 105 0 105 0 29 -53 c30 -56 75 -92
115 -92 l25 0 -29 30 c-19 20 -60 105 -116 243 -54 131 -93 213 -103 215 -10
2 -21 -11 -32 -35z m58 -171 c20 -48 34 -90 31 -94 -6 -11 -161 -10 -167 1 -3
5 8 39 25 77 17 37 35 78 40 91 14 38 33 17 71 -75z"></path>
</g>
</svg>